<svg xmlns="http://www.w3.org/2000/svg" xmlns:xlink="http://www.w3.org/1999/xlink" width="500" zoomAndPan="magnify" viewBox="0 0 375 374.999991" height="500" preserveAspectRatio="xMidYMid meet" version="1.0"><defs><g/><clipPath id="9c3552bde7"><path d="M 195 136 L 253.035156 136 L 253.035156 195.351562 L 195 195.351562 Z M 195 136 " clip-rule="nonzero"/></clipPath><clipPath id="2f345e2b47"><path d="M 121.855469 136 L 205 136 L 205 195.351562 L 121.855469 195.351562 Z M 121.855469 136 " clip-rule="nonzero"/></clipPath><clipPath id="40874e37d3"><path d="M 192 104.601562 L 215 104.601562 L 215 127 L 192 127 Z M 192 104.601562 " clip-rule="nonzero"/></clipPath><clipPath id="e9385fddaa"><path d="M 160 104.601562 L 183 104.601562 L 183 127 L 160 127 Z M 160 104.601562 " clip-rule="nonzero"/></clipPath></defs><g fill="#0085c2" fill-opacity="1"><g transform="translate(89.353996, 242.607978)"><g><path d="M 3.15625 0 L 3.15625 -26.234375 L 14.359375 -26.234375 C 16.359375 -26.234375 18.09375 -25.867188 19.5625 -25.140625 C 21.039062 -24.421875 22.175781 -23.382812 22.96875 -22.03125 C 23.769531 -20.6875 24.171875 -19.078125 24.171875 -17.203125 C 24.171875 -15.273438 23.734375 -13.617188 22.859375 -12.234375 C 21.984375 -10.847656 20.757812 -9.804688 19.1875 -9.109375 L 24.625 0 L 17.734375 0 L 13.046875 -8.171875 L 9.109375 -8.171875 L 9.109375 0 Z M 9.03125 -13.1875 L 13.5625 -13.1875 C 15.039062 -13.1875 16.171875 -13.53125 16.953125 -14.21875 C 17.742188 -14.90625 18.140625 -15.890625 18.140625 -17.171875 C 18.140625 -18.441406 17.742188 -19.421875 16.953125 -20.109375 C 16.171875 -20.796875 15.039062 -21.140625 13.5625 -21.140625 L 9.03125 -21.140625 Z M 9.03125 -13.1875 "/></g></g></g><g fill="#0085c2" fill-opacity="1"><g transform="translate(123.234537, 242.607978)"><g><path d="M 15.59375 0.53125 C 12.863281 0.53125 10.441406 -0.0507812 8.328125 -1.21875 C 6.222656 -2.382812 4.578125 -3.988281 3.390625 -6.03125 C 2.203125 -8.082031 1.609375 -10.445312 1.609375 -13.125 C 1.609375 -15.789062 2.203125 -18.148438 3.390625 -20.203125 C 4.578125 -22.253906 6.222656 -23.859375 8.328125 -25.015625 C 10.441406 -26.179688 12.863281 -26.765625 15.59375 -26.765625 C 18.34375 -26.765625 20.765625 -26.179688 22.859375 -25.015625 C 24.960938 -23.859375 26.613281 -22.253906 27.8125 -20.203125 C 29.007812 -18.148438 29.609375 -15.789062 29.609375 -13.125 C 29.609375 -10.445312 29.007812 -8.082031 27.8125 -6.03125 C 26.613281 -3.988281 24.960938 -2.382812 22.859375 -1.21875 C 20.765625 -0.0507812 18.34375 0.53125 15.59375 0.53125 Z M 7.6875 -13.125 C 7.6875 -11.550781 8.019531 -10.160156 8.6875 -8.953125 C 9.363281 -7.753906 10.296875 -6.816406 11.484375 -6.140625 C 12.671875 -5.472656 14.039062 -5.140625 15.59375 -5.140625 C 17.164062 -5.140625 18.546875 -5.472656 19.734375 -6.140625 C 20.921875 -6.816406 21.84375 -7.753906 22.5 -8.953125 C 23.164062 -10.160156 23.5 -11.550781 23.5 -13.125 C 23.5 -14.695312 23.164062 -16.082031 22.5 -17.28125 C 21.84375 -18.476562 20.921875 -19.414062 19.734375 -20.09375 C 18.546875 -20.769531 17.164062 -21.109375 15.59375 -21.109375 C 14.039062 -21.109375 12.671875 -20.769531 11.484375 -20.09375 C 10.296875 -19.414062 9.363281 -18.476562 8.6875 -17.28125 C 8.019531 -16.082031 7.6875 -14.695312 7.6875 -13.125 Z M 7.6875 -13.125 "/></g></g></g><g fill="#0085c2" fill-opacity="1"><g transform="translate(161.949554, 242.607978)"><g><path d="M 15.59375 0.53125 C 12.863281 0.53125 10.441406 -0.0507812 8.328125 -1.21875 C 6.222656 -2.382812 4.578125 -3.988281 3.390625 -6.03125 C 2.203125 -8.082031 1.609375 -10.445312 1.609375 -13.125 C 1.609375 -15.789062 2.203125 -18.148438 3.390625 -20.203125 C 4.578125 -22.253906 6.222656 -23.859375 8.328125 -25.015625 C 10.441406 -26.179688 12.863281 -26.765625 15.59375 -26.765625 C 18.34375 -26.765625 20.765625 -26.179688 22.859375 -25.015625 C 24.960938 -23.859375 26.613281 -22.253906 27.8125 -20.203125 C 29.007812 -18.148438 29.609375 -15.789062 29.609375 -13.125 C 29.609375 -10.445312 29.007812 -8.082031 27.8125 -6.03125 C 26.613281 -3.988281 24.960938 -2.382812 22.859375 -1.21875 C 20.765625 -0.0507812 18.34375 0.53125 15.59375 0.53125 Z M 7.6875 -13.125 C 7.6875 -11.550781 8.019531 -10.160156 8.6875 -8.953125 C 9.363281 -7.753906 10.296875 -6.816406 11.484375 -6.140625 C 12.671875 -5.472656 14.039062 -5.140625 15.59375 -5.140625 C 17.164062 -5.140625 18.546875 -5.472656 19.734375 -6.140625 C 20.921875 -6.816406 21.84375 -7.753906 22.5 -8.953125 C 23.164062 -10.160156 23.5 -11.550781 23.5 -13.125 C 23.5 -14.695312 23.164062 -16.082031 22.5 -17.28125 C 21.84375 -18.476562 20.921875 -19.414062 19.734375 -20.09375 C 18.546875 -20.769531 17.164062 -21.109375 15.59375 -21.109375 C 14.039062 -21.109375 12.671875 -20.769531 11.484375 -20.09375 C 10.296875 -19.414062 9.363281 -18.476562 8.6875 -17.28125 C 8.019531 -16.082031 7.6875 -14.695312 7.6875 -13.125 Z M 7.6875 -13.125 "/></g></g></g><g fill="#0085c2" fill-opacity="1"><g transform="translate(200.664571, 242.607978)"><g><path d="M 3.15625 0 L 3.15625 -26.234375 L 8.203125 -26.234375 L 17.546875 -12.625 L 26.84375 -26.234375 L 31.859375 -26.234375 L 31.859375 0 L 25.9375 0 L 25.9375 -15.78125 L 19.5625 -6.484375 L 15.4375 -6.484375 L 9.078125 -15.8125 L 9.078125 0 Z M 3.15625 0 "/></g></g></g><g fill="#0085c2" fill-opacity="1"><g transform="translate(243.16472, 242.607978)"><g><path d="M 3.15625 0 L 3.15625 -26.234375 L 9.109375 -26.234375 L 9.109375 0 Z M 3.15625 0 "/></g></g></g><g fill="#0085c2" fill-opacity="1"><g transform="translate(262.916604, 242.607978)"><g><path d="M 3.15625 0 L 3.15625 -26.234375 L 20.390625 -26.234375 L 20.390625 -21.21875 L 9.078125 -21.21875 L 9.078125 -15.78125 L 19.375 -15.78125 L 19.375 -10.796875 L 9.078125 -10.796875 L 9.078125 -5.0625 L 20.796875 -5.0625 L 20.796875 0 Z M 3.15625 0 "/></g></g></g><g fill="#ffbd59" fill-opacity="1"><g transform="translate(142.401968, 267.777198)"><g><path d="M 2.3125 -6.921875 L 2.3125 -4.171875 L 6.28125 -4.171875 L 6.28125 -3.203125 L 2.3125 -3.203125 L 2.3125 0 L 1.1875 0 L 1.1875 -7.90625 L 6.765625 -7.90625 L 6.765625 -6.921875 Z M 2.3125 -6.921875 "/></g></g></g><g fill="#ffbd59" fill-opacity="1"><g transform="translate(158.620213, 267.777198)"><g><path d="M 1.1875 -7.90625 L 2.3125 -7.90625 L 2.3125 0 L 1.1875 0 Z M 1.1875 -7.90625 "/></g></g></g><g fill="#ffbd59" fill-opacity="1"><g transform="translate(171.166965, 267.777198)"><g><path d="M 7.984375 -7.90625 L 7.984375 0 L 7.0625 0 L 2.3125 -5.890625 L 2.3125 0 L 1.1875 0 L 1.1875 -7.90625 L 2.109375 -7.90625 L 6.859375 -2.015625 L 6.859375 -7.90625 Z M 7.984375 -7.90625 "/></g></g></g><g fill="#ffbd59" fill-opacity="1"><g transform="translate(189.384768, 267.777198)"><g><path d="M 1.1875 -7.90625 L 4.515625 -7.90625 C 5.347656 -7.90625 6.085938 -7.738281 6.734375 -7.40625 C 7.390625 -7.070312 7.894531 -6.609375 8.25 -6.015625 C 8.601562 -5.421875 8.78125 -4.734375 8.78125 -3.953125 C 8.78125 -3.179688 8.601562 -2.492188 8.25 -1.890625 C 7.894531 -1.296875 7.390625 -0.832031 6.734375 -0.5 C 6.085938 -0.164062 5.347656 0 4.515625 0 L 1.1875 0 Z M 4.453125 -0.984375 C 5.085938 -0.984375 5.648438 -1.109375 6.140625 -1.359375 C 6.628906 -1.609375 7.003906 -1.957031 7.265625 -2.40625 C 7.523438 -2.851562 7.65625 -3.367188 7.65625 -3.953125 C 7.65625 -4.535156 7.523438 -5.050781 7.265625 -5.5 C 7.003906 -5.945312 6.628906 -6.296875 6.140625 -6.546875 C 5.648438 -6.796875 5.085938 -6.921875 4.453125 -6.921875 L 2.3125 -6.921875 L 2.3125 -0.984375 Z M 4.453125 -0.984375 "/></g></g></g><g fill="#ffbd59" fill-opacity="1"><g transform="translate(207.760728, 267.777198)"><g><path d="M 6.921875 -0.984375 L 6.921875 0 L 1.1875 0 L 1.1875 -7.90625 L 6.765625 -7.90625 L 6.765625 -6.921875 L 2.3125 -6.921875 L 2.3125 -4.5 L 6.28125 -4.5 L 6.28125 -3.53125 L 2.3125 -3.53125 L 2.3125 -0.984375 Z M 6.921875 -0.984375 "/></g></g></g><g fill="#ffbd59" fill-opacity="1"><g transform="translate(224.374367, 267.777198)"><g><path d="M 6.46875 0 L 4.765625 -2.421875 C 4.554688 -2.410156 4.390625 -2.40625 4.265625 -2.40625 L 2.3125 -2.40625 L 2.3125 0 L 1.1875 0 L 1.1875 -7.90625 L 4.265625 -7.90625 C 5.296875 -7.90625 6.101562 -7.660156 6.6875 -7.171875 C 7.269531 -6.679688 7.5625 -6.007812 7.5625 -5.15625 C 7.5625 -4.539062 7.410156 -4.019531 7.109375 -3.59375 C 6.816406 -3.164062 6.390625 -2.851562 5.828125 -2.65625 L 7.703125 0 Z M 4.234375 -3.359375 C 4.953125 -3.359375 5.5 -3.515625 5.875 -3.828125 C 6.25 -4.140625 6.4375 -4.582031 6.4375 -5.15625 C 6.4375 -5.726562 6.25 -6.164062 5.875 -6.46875 C 5.5 -6.769531 4.953125 -6.921875 4.234375 -6.921875 L 2.3125 -6.921875 L 2.3125 -3.359375 Z M 4.234375 -3.359375 "/></g></g></g><g clip-path="url(#9c3552bde7)"><path fill="#ffbd59" d="M 253.210938 185.640625 L 253.210938 195.503906 L 226.722656 195.503906 L 226.722656 169.5 C 226.722656 157.132812 216.96875 146.941406 204.773438 146.222656 C 204.632812 146.222656 204.492188 146.207031 204.351562 146.207031 C 201.925781 142.792969 198.949219 139.753906 195.601562 137.25 C 198.105469 136.640625 200.722656 136.3125 203.414062 136.3125 L 204.574219 136.34375 C 222.308594 136.953125 236.585938 151.625 236.585938 169.503906 L 236.585938 185.644531 L 253.210938 185.644531 Z M 253.210938 185.640625 " fill-opacity="1" fill-rule="evenodd"/></g><g clip-path="url(#2f345e2b47)"><path fill="#0085c2" d="M 187.488281 152.5 C 192.042969 156.757812 194.894531 162.816406 194.894531 169.5 L 194.894531 178.390625 C 194.894531 182.433594 191.605469 185.71875 187.570312 185.71875 C 183.542969 185.71875 180.242188 182.429688 180.242188 178.390625 L 180.242188 166.867188 C 180.601562 163.707031 181.605469 160.714844 183.109375 158.054688 C 182.246094 157.195312 181.277344 156.414062 180.242188 155.753906 C 178.472656 154.640625 176.488281 153.84375 174.375 153.464844 C 172.210938 157.363281 170.820312 161.734375 170.378906 166.367188 L 170.378906 178.390625 C 170.378906 185.183594 174.339844 191.085938 180.085938 193.871094 C 181.871094 194.734375 183.828125 195.3125 185.898438 195.5 L 189.25 195.5 C 191.25 195.3125 193.160156 194.761719 194.898438 193.949219 C 200.722656 191.191406 204.777344 185.246094 204.777344 178.386719 L 204.777344 169.496094 C 204.777344 160.976562 201.535156 153.199219 196.230469 147.308594 C 195.804688 146.839844 195.351562 146.371094 194.898438 145.917969 C 192.707031 143.757812 190.21875 141.894531 187.496094 140.390625 C 185.269531 139.167969 182.890625 138.199219 180.386719 137.496094 C 177.585938 136.726562 174.640625 136.304688 171.589844 136.304688 C 171.261719 136.304688 170.917969 136.320312 170.574219 136.320312 C 152.773438 136.867188 138.417969 151.566406 138.417969 169.496094 L 138.417969 185.636719 L 121.785156 185.636719 L 121.785156 195.5 L 148.273438 195.5 L 148.273438 169.5 C 148.273438 157.085938 158.101562 146.863281 170.378906 146.222656 C 170.769531 146.207031 171.175781 146.191406 171.585938 146.191406 C 174.089844 146.191406 176.5 146.582031 178.769531 147.316406 C 179.257812 147.492188 179.757812 147.664062 180.242188 147.863281 C 182.949219 148.945312 185.390625 150.542969 187.488281 152.5 Z M 187.488281 152.5 " fill-opacity="1" fill-rule="evenodd"/></g><g clip-path="url(#40874e37d3)"><path fill="#ffbd59" d="M 203.410156 104.65625 C 209.390625 104.65625 214.242188 109.492188 214.242188 115.492188 C 214.242188 121.472656 209.390625 126.328125 203.410156 126.328125 C 197.429688 126.328125 192.574219 121.472656 192.574219 115.492188 C 192.578125 109.492188 197.414062 104.65625 203.410156 104.65625 Z M 203.410156 104.65625 " fill-opacity="1" fill-rule="evenodd"/></g><g clip-path="url(#e9385fddaa)"><path fill="#0085c2" d="M 171.585938 104.65625 C 177.5625 104.65625 182.417969 109.492188 182.417969 115.492188 C 182.417969 121.472656 177.566406 126.328125 171.585938 126.328125 C 165.601562 126.328125 160.75 121.472656 160.75 115.492188 C 160.75 109.492188 165.605469 104.65625 171.585938 104.65625 Z M 171.585938 104.65625 " fill-opacity="1" fill-rule="evenodd"/></g></svg>